<svg xmlns="http://www.w3.org/2000/svg" version="1.1" xmlns:xlink="http://www.w3.org/1999/xlink" xmlns:svgjs="http://svgjs.com/svgjs" width="1920" height="1080" preserveAspectRatio="none" viewBox="0 0 1920 1080"><g mask="url(&quot;#SvgjsMask1106&quot;)" fill="none"><rect width="1920" height="1080" x="0" y="0" fill="rgba(6, 14, 45, 1)"></rect><path d="M514 937L114 1337" stroke-width="6" stroke="url(#SvgjsLinearGradient1107)" stroke-linecap="round" class="TopRight"></path><path d="M261 360L-294 915" stroke-width="8" stroke="url(#SvgjsLinearGradient1108)" stroke-linecap="round" class="BottomLeft"></path><path d="M396 240L1161 -525" stroke-width="10" stroke="url(#SvgjsLinearGradient1108)" stroke-linecap="round" class="BottomLeft"></path><path d="M270 377L-278 925" stroke-width="8" stroke="url(#SvgjsLinearGradient1107)" stroke-linecap="round" class="TopRight"></path><path d="M1264 4L923 345" stroke-width="10" stroke="url(#SvgjsLinearGradient1108)" stroke-linecap="round" class="BottomLeft"></path><path d="M1860 612L1167 1305" stroke-width="10" stroke="url(#SvgjsLinearGradient1108)" stroke-linecap="round" class="BottomLeft"></path><path d="M1294 726L2081 -61" stroke-width="10" stroke="url(#SvgjsLinearGradient1108)" stroke-linecap="round" class="BottomLeft"></path><path d="M1006 211L461 756" stroke-width="8" stroke="url(#SvgjsLinearGradient1107)" stroke-linecap="round" class="TopRight"></path><path d="M774 410L1395 -211" stroke-width="10" stroke="url(#SvgjsLinearGradient1107)" stroke-linecap="round" class="TopRight"></path><path d="M1484 354L1813 25" stroke-width="8" stroke="url(#SvgjsLinearGradient1107)" stroke-linecap="round" class="TopRight"></path><path d="M1081 979L480 1580" stroke-width="8" stroke="url(#SvgjsLinearGradient1108)" stroke-linecap="round" class="BottomLeft"></path><path d="M72 1046L615 503" stroke-width="10" stroke="url(#SvgjsLinearGradient1108)" stroke-linecap="round" class="BottomLeft"></path><path d="M1363 954L1816 501" stroke-width="6" stroke="url(#SvgjsLinearGradient1108)" stroke-linecap="round" class="BottomLeft"></path><path d="M1023 263L1556 -270" stroke-width="6" stroke="url(#SvgjsLinearGradient1108)" stroke-linecap="round" class="BottomLeft"></path><path d="M1347 971L1787 531" stroke-width="8" stroke="url(#SvgjsLinearGradient1108)" stroke-linecap="round" class="BottomLeft"></path><path d="M493 695L179 1009" stroke-width="10" stroke="url(#SvgjsLinearGradient1108)" stroke-linecap="round" class="BottomLeft"></path><path d="M1142 141L537 746" stroke-width="8" stroke="url(#SvgjsLinearGradient1107)" stroke-linecap="round" class="TopRight"></path><path d="M677 167L179 665" stroke-width="6" stroke="url(#SvgjsLinearGradient1108)" stroke-linecap="round" class="BottomLeft"></path><path d="M1023 319L1748 -406" stroke-width="8" stroke="url(#SvgjsLinearGradient1107)" stroke-linecap="round" class="TopRight"></path><path d="M604 694L238 1060" stroke-width="10" stroke="url(#SvgjsLinearGradient1107)" stroke-linecap="round" class="TopRight"></path><path d="M253 505L682 76" stroke-width="8" stroke="url(#SvgjsLinearGradient1107)" stroke-linecap="round" class="TopRight"></path><path d="M1100 288L1906 -518" stroke-width="8" stroke="url(#SvgjsLinearGradient1107)" stroke-linecap="round" class="TopRight"></path><path d="M592 477L977 92" stroke-width="10" stroke="url(#SvgjsLinearGradient1107)" stroke-linecap="round" class="TopRight"></path><path d="M74 118L-558 750" stroke-width="6" stroke="url(#SvgjsLinearGradient1108)" stroke-linecap="round" class="BottomLeft"></path><path d="M512 262L986 -212" stroke-width="8" stroke="url(#SvgjsLinearGradient1108)" stroke-linecap="round" class="BottomLeft"></path><path d="M22 612L-312 946" stroke-width="10" stroke="url(#SvgjsLinearGradient1108)" stroke-linecap="round" class="BottomLeft"></path><path d="M679 844L1440 83" stroke-width="8" stroke="url(#SvgjsLinearGradient1107)" stroke-linecap="round" class="TopRight"></path><path d="M849 590L377 1062" stroke-width="10" stroke="url(#SvgjsLinearGradient1108)" stroke-linecap="round" class="BottomLeft"></path><path d="M758 159L389 528" stroke-width="6" stroke="url(#SvgjsLinearGradient1108)" stroke-linecap="round" class="BottomLeft"></path><path d="M1338 402L1725 15" stroke-width="10" stroke="url(#SvgjsLinearGradient1108)" stroke-linecap="round" class="BottomLeft"></path><path d="M383 255L-400 1038" stroke-width="8" stroke="url(#SvgjsLinearGradient1108)" stroke-linecap="round" class="BottomLeft"></path><path d="M1399 1005L756 1648" stroke-width="8" stroke="url(#SvgjsLinearGradient1107)" stroke-linecap="round" class="TopRight"></path><path d="M1124 474L411 1187" stroke-width="10" stroke="url(#SvgjsLinearGradient1108)" stroke-linecap="round" class="BottomLeft"></path><path d="M1563 426L2177 -188" stroke-width="8" stroke="url(#SvgjsLinearGradient1107)" stroke-linecap="round" class="TopRight"></path><path d="M814 119L190 743" stroke-width="10" stroke="url(#SvgjsLinearGradient1108)" stroke-linecap="round" class="BottomLeft"></path><path d="M222 198L-262 682" stroke-width="8" stroke="url(#SvgjsLinearGradient1107)" stroke-linecap="round" class="TopRight"></path><path d="M1036 592L341 1287" stroke-width="6" stroke="url(#SvgjsLinearGradient1107)" stroke-linecap="round" class="TopRight"></path><path d="M1283 48L749 582" stroke-width="8" stroke="url(#SvgjsLinearGradient1108)" stroke-linecap="round" class="BottomLeft"></path><path d="M1604 131L978 757" stroke-width="8" stroke="url(#SvgjsLinearGradient1108)" stroke-linecap="round" class="BottomLeft"></path><path d="M527 45L999 -427" stroke-width="6" stroke="url(#SvgjsLinearGradient1107)" stroke-linecap="round" class="TopRight"></path><path d="M879 999L1533 345" stroke-width="10" stroke="url(#SvgjsLinearGradient1107)" stroke-linecap="round" class="TopRight"></path><path d="M119 167L419 -133" stroke-width="6" stroke="url(#SvgjsLinearGradient1107)" stroke-linecap="round" class="TopRight"></path><path d="M766 297L1178 -115" stroke-width="8" stroke="url(#SvgjsLinearGradient1107)" stroke-linecap="round" class="TopRight"></path><path d="M1404 520L2117 -193" stroke-width="10" stroke="url(#SvgjsLinearGradient1108)" stroke-linecap="round" class="BottomLeft"></path><path d="M1516 582L2004 94" stroke-width="6" stroke="url(#SvgjsLinearGradient1108)" stroke-linecap="round" class="BottomLeft"></path><path d="M896 246L530 612" stroke-width="10" stroke="url(#SvgjsLinearGradient1108)" stroke-linecap="round" class="BottomLeft"></path><path d="M863 471L1254 80" stroke-width="10" stroke="url(#SvgjsLinearGradient1107)" stroke-linecap="round" class="TopRight"></path><path d="M128 201L794 -465" stroke-width="8" stroke="url(#SvgjsLinearGradient1108)" stroke-linecap="round" class="BottomLeft"></path><path d="M243 932L-462 1637" stroke-width="10" stroke="url(#SvgjsLinearGradient1108)" stroke-linecap="round" class="BottomLeft"></path><path d="M987 348L378 957" stroke-width="6" stroke="url(#SvgjsLinearGradient1107)" stroke-linecap="round" class="TopRight"></path><path d="M416 774L887 303" stroke-width="8" stroke="url(#SvgjsLinearGradient1108)" stroke-linecap="round" class="BottomLeft"></path><path d="M525 778L1236 67" stroke-width="10" stroke="url(#SvgjsLinearGradient1108)" stroke-linecap="round" class="BottomLeft"></path><path d="M1836 310L2242 -96" stroke-width="10" stroke="url(#SvgjsLinearGradient1108)" stroke-linecap="round" class="BottomLeft"></path><path d="M1111 209L419 901" stroke-width="10" stroke="url(#SvgjsLinearGradient1107)" stroke-linecap="round" class="TopRight"></path><path d="M558 590L1158 -10" stroke-width="8" stroke="url(#SvgjsLinearGradient1107)" stroke-linecap="round" class="TopRight"></path><path d="M1375 464L907 932" stroke-width="8" stroke="url(#SvgjsLinearGradient1108)" stroke-linecap="round" class="BottomLeft"></path></g><defs><mask id="SvgjsMask1106"><rect width="1920" height="1080" fill="#ffffff"></rect></mask><linearGradient x1="0%" y1="100%" x2="100%" y2="0%" id="SvgjsLinearGradient1107"><stop stop-color="rgba(42, 111, 219, 0)" offset="0"></stop><stop stop-color="rgba(42, 111, 219, 1)" offset="1"></stop></linearGradient><linearGradient x1="100%" y1="0%" x2="0%" y2="100%" id="SvgjsLinearGradient1108"><stop stop-color="rgba(42, 111, 219, 0)" offset="0"></stop><stop stop-color="rgba(42, 111, 219, 1)" offset="1"></stop></linearGradient></defs></svg>